<svg xmlns="http://www.w3.org/2000/svg" width="180" height="180">
  <defs>
    <clipPath id="hex">
      <polygon points="162.00,90.00 126.00,152.35 54.00,152.35 18.00,90.00 54.00,27.65 126.00,27.65"/>
    </clipPath>
  </defs>
  <polygon points="162.00,90.00 126.00,152.35 54.00,152.35 18.00,90.00 54.00,27.65 126.00,27.65" fill="#e4d5b5"/>
  <g clip-path="url(#hex)">
    <line x1="162.00" y1="90.00" x2="126.00" y2="152.35" stroke="#6aaa52" stroke-width="16" stroke-linecap="round"/>
    <line x1="126.00" y1="152.35" x2="54.00" y2="152.35" stroke="#b8a898" stroke-width="16" stroke-linecap="round"/>
    <line x1="54.00" y1="152.35" x2="18.00" y2="90.00" stroke="#6aaa52" stroke-width="16" stroke-linecap="round"/>
    <line x1="18.00" y1="90.00" x2="54.00" y2="27.65" stroke="#6aaa52" stroke-width="16" stroke-linecap="round"/>
    <line x1="54.00" y1="27.65" x2="126.00" y2="27.65" stroke="#6aaa52" stroke-width="16" stroke-linecap="round"/>
    <line x1="126.00" y1="27.65" x2="162.00" y2="90.00" stroke="#6aaa52" stroke-width="16" stroke-linecap="round"/>
  </g>
  <polygon points="162.00,90.00 126.00,152.35 54.00,152.35 18.00,90.00 54.00,27.65 126.00,27.65" fill="none" stroke="#666666" stroke-width="2"/>
  <text x="90" y="95" text-anchor="middle"
        font-family="sans-serif" font-size="11" fill="#333">road_end r5</text>
</svg>